<?xml version="1.0" encoding="UTF-8"?>
<!DOCTYPE svg PUBLIC "-//W3C//DTD SVG 1.1//EN" "http://www.w3.org/Graphics/SVG/1.1/DTD/svg11.dtd">
<!-- Creator: CorelDRAW 2020 (64-Bit) -->
<svg xmlns="http://www.w3.org/2000/svg" xml:space="preserve" width="148.485mm" height="210mm" version="1.1" style="shape-rendering:geometricPrecision; text-rendering:geometricPrecision; image-rendering:optimizeQuality; fill-rule:evenodd; clip-rule:evenodd"
viewBox="0 0 14848.48 21000"
 xmlns:xlink="http://www.w3.org/1999/xlink"
 xmlns:xodm="http://www.corel.com/coreldraw/odm/2003">
 <defs>
  <style type="text/css">
   <![CDATA[
    .str0 {stroke:#666666;stroke-width:23.95;stroke-miterlimit:22.9256}
    .fil7 {fill:#44C7F4}
    .fil2 {fill:#666666}
    .fil0 {fill:#6DC6ED}
    .fil8 {fill:#C5C6C5}
    .fil5 {fill:#C7D5E0}
    .fil3 {fill:#C9E6F2}
    .fil1 {fill:#DDDDDC}
    .fil6 {fill:#DDECF7}
    .fil4 {fill:#FEE076}
   ]]>
  </style>
 </defs>
 <g id="Layer_x0020_1">
  <metadata id="CorelCorpID_0Corel-Layer"/>
  <g id="_1023004320">
   <path class="fil0 str0" d="M5521.78 13629.08c-120.51,405.09 -358.26,218.27 -627.44,385.99 -224.33,139.77 -196.57,623.11 -24.81,745.99 145.09,103.81 3832.28,104.58 3978.59,-2.9 165,-121.21 154.39,-602.62 -31.33,-734.53 -167.21,-118.77 -509.03,4.27 -632.93,-383 446.54,-58.09 1230.43,-9.64 1714.23,-10.97 423.48,-1.17 1010.81,224.64 1350.05,-304.05 456.89,-712.07 -209.99,-1154.67 -244.73,-1210.67 -86.71,-139.79 -35.91,-3044.05 -35.9,-3452.58 0.02,-627.09 58.25,-1075.45 -654.39,-1078.14 -575.29,-2.16 -1151.52,0.98 -1726.96,0.99 -350.92,0.01 -513.16,60.71 -742.04,-114.08 -150.92,-115.25 -368.62,-229.9 -597.06,-301.85 -475.75,-149.85 -1029.5,-131.88 -1489.2,44.83 -832.84,320.17 -93.33,371.1 -1349.12,371.1 -1862.27,0 -1676.85,-185.88 -1676.85,1836.68 0,1161.99 5.23,2325.19 -0.65,3487.03 -3.83,758.33 347.48,720.87 1021.55,720.84 589.21,-0.02 1180.01,4.28 1769.01,-0.68z"/>
   <path class="fil1" d="M6263.41 7431.92c-932.05,150.32 -1714.22,1042.65 -1534.33,2152.38 149.13,919.88 1054.97,1710.36 2154.7,1513.54 913.58,-163.51 1702.86,-1028.72 1511.82,-2141.98 -158.13,-921.48 -1027.13,-1702.16 -2132.19,-1523.94z"/>
   <path class="fil2" d="M6375.83 7712.21c-805.01,92.79 -1493.54,839.81 -1363.11,1771.12 109.66,782.93 831.42,1464.41 1757.72,1338.19 797.46,-108.66 1463.41,-836.89 1344.4,-1759.57 -102.29,-793.14 -828.79,-1454.66 -1739.02,-1349.74z"/>
   <path class="fil3" d="M8087.91 11419.55l-289.4 -304.86c-368.94,131.66 -638.4,399.98 -1353.98,357.16 -895.88,-53.61 -1644.89,-613 -1953.95,-1442.04 -209.99,-563.29 -143.27,-923 -22.68,-1475.65l-755.19 -10.04c55.22,244.97 34.3,3317.65 19.61,3777.63 418.01,-81.51 1701.04,59.78 2558.43,-83.63 652.12,-109.07 1428.93,-475.09 1797.16,-818.58z"/>
   <path class="fil4" d="M6358.94 8069.98c-1649.51,318.13 -1123.23,2705.51 440.24,2393.65 590,-117.69 1100.09,-684.85 961.22,-1424.47 -110.3,-587.41 -683.66,-1107.6 -1401.46,-969.17z"/>
   <path class="fil5" d="M8087.91 11763.96c-368.23,343.48 -1145.04,709.5 -1797.16,818.57 -857.39,143.42 -2140.42,2.11 -2558.43,83.63 14.69,-459.98 35.6,-3532.65 -19.61,-3777.63 -81.94,226.99 -20.31,3566.42 -19.59,4119.49l5465.76 10.58c-112.09,-109.85 -148.2,-186.64 -252.98,-291.96 -205.33,-206.39 -688.22,-562.84 -766.96,-823.17l-51.03 -139.51z"/>
   <path class="fil2" d="M10389.03 13274.24c374.79,-95.35 511.52,-219.43 599.14,-601.54 -8.92,-125.31 -89.02,-184.06 -179.98,-259.38l-1807.76 -1460.94 -500.61 552.52 1607.71 1574.41c88.91,85.99 127.53,186.84 281.51,194.93z"/>
   <path class="fil1" d="M7877.9 13836.08c-425.91,75.21 -1568.98,23.85 -2062.13,17.64 -130.53,203.79 -245.14,356.15 -524.24,418.68 -236.93,53.08 -190.37,-33.94 -205.96,155.48 51.64,37.45 1.57,18.09 85.87,38.11l3034.92 9.52c343.66,3.18 390.44,49.61 404.11,-82.15 24.73,-238.3 -271.6,112.19 -732.57,-557.28z"/>
   <path class="fil5" d="M8897.04 10586.75c368.23,-22.64 626.78,377.94 1066.68,676.66l49.34 -2722.91 -317.15 3.25c-109.96,299.25 -142.02,749.95 -294.53,1140.75 -115.95,297.13 -319.19,717.95 -504.34,902.25z"/>
   <path class="fil6" d="M8897.04 10586.75c185.15,-184.3 388.39,-605.12 504.34,-902.25 152.51,-390.79 184.57,-841.5 294.53,-1140.75l-1042.42 -2.14c141.05,751.47 195.98,999.97 -118.08,1708.86 120.01,158.41 225.53,253.52 361.63,336.28z"/>
   <path class="fil7" d="M10318.62 8232.85c40.76,-55.44 24.65,3.01 30.99,-121.79 2.93,-57.71 -4.66,-121.57 -9,-178.66l-2005.05 0.08 159.55 263.61c405.34,6.92 1548.59,-50.07 1823.51,36.76z"/>
   <path class="fil8" d="M5815.77 13853.72c493.15,6.21 1636.22,57.57 2062.13,-17.64l-60.74 -196.88 -1936.09 -10.2 -65.3 224.72z"/>
   <path class="fil2" d="M8060.04 10924.73l280.86 216.53c143.51,-94.88 186.5,-194.34 275.59,-303.88 -59.74,-85.22 -135.04,-126.92 -223.69,-253.82 -89.51,32.87 -39.93,13.62 -101.43,61.15 -98.69,76.29 -188.25,171.18 -231.34,280.01z"/>
  </g>
 </g>
</svg>
