<svg xmlns="http://www.w3.org/2000/svg" width="335.975" height="239.96" viewBox="0 0 335.975 239.96"><defs><style>.a{fill:#eff1f7;}.b{fill:#fea733;}.c{fill:#fccfa4;}.d{fill:#273756;}.e{fill:#fac5a3;}.f{fill:#f57723;}.g{fill:#febc65;}.h{fill:#fefefe;}.i{fill:#febc64;}.j{fill:#fefefd;}.k{fill:#febc63;}.l{fill:#f39c9e;}.m{fill:#fccfa5;}.n{fill:#f0e9e6;}</style></defs><g transform="translate(-269.615 -334.299)"><path class="a" d="M496.636,360.168c3.78,0,7.561-.074,11.338.023,3.337.086,6.676.047,10.008.183,4.288.174,8.576.244,12.865.353,3.183.081,6.367.217,9.55.338,8.685.329,17.372.126,26.057.12,5.457,0,10.92-.023,16.373-.193,4.212-.132,8.418-.1,12.627-.1a82.622,82.622,0,0,1,8.413.36,78.763,78.763,0,0,1,14.5,2.416,32.485,32.485,0,0,1,11.316,5.76c5.661,4.556,8.817,10.569,10.188,17.6a57.861,57.861,0,0,1,.744,5.924,110.565,110.565,0,0,1,.3,11.128,63.747,63.747,0,0,1-.639,7.245c-.137,1.087-.161,2.2-.194,3.291-.082,2.721-.4,5.415-.683,8.117-.161,1.52-.216,3.054-.388,4.578-.232,2.064-.467,4.128-.668,6.2-.154,1.581-.255,3.169-.382,4.753-.224,2.793-.479,5.583-.663,8.378q-.114,1.732-.194,3.467c-.141,3.12-.447,6.225-.693,9.336-.1,1.24-.086,2.486-.165,3.731-.215,3.375-.477,6.748-.692,10.122-.148,2.309-.61,4.594-.546,6.911.052,1.878.222,3.752.34,5.628-.263.129-.436-.068-.629-.179a2.515,2.515,0,0,0-3.27.33,10.5,10.5,0,0,0-2.526,3.724,39.286,39.286,0,0,0-2.229,8.946c-.327,1.772-.577,3.557-.877,5.333a3,3,0,0,1-1.146,1.976c-5.13,4.006-10.214,8.074-15.561,11.794-1.861,1.295-3.639,2.71-5.555,3.921a25.337,25.337,0,0,1-10.226,3.5,19.224,19.224,0,0,1-8.424-.812,14.631,14.631,0,0,1-4.338-2.543c-4.058-3.017-8.014-6.166-11.945-9.347a1.472,1.472,0,0,1-.508-.585.857.857,0,0,1,.159-.573,2.346,2.346,0,0,0-.382-3.006,86.41,86.41,0,0,1-5.86-7.36,30.542,30.542,0,0,1-1.836-3.165c-3.145-6.129-5.994-12.4-9.049-18.573a79.519,79.519,0,0,0-6.4-11.186,34.37,34.37,0,0,0-3.4-4.077,64.7,64.7,0,0,0-8.918-8.045,31.1,31.1,0,0,0-15.525-5.928c-1.65-.127-3.292-.306-4.937-.46a14.848,14.848,0,0,1-3.942-.849c-.377-.191-.707.1-1,.342s-.532.629-1.007.581a8.262,8.262,0,0,1-3.494-6.4c-.027-.84-.021-1.681,0-2.522.008-.348.025-.709.423-.877a3.45,3.45,0,0,0,2.87-1.616c2.76-3.306,5.121-6.916,7.9-10.2q1.941-2.3,4.021-4.468a49.8,49.8,0,0,0,9.115-12.377,32.283,32.283,0,0,0,3.23-11.522,9.253,9.253,0,0,0-.32-2.849,16.29,16.29,0,0,0-7.292-10.038,79.179,79.179,0,0,0-7.135-4.023,25.081,25.081,0,0,1-8.982-8.079c-1.784-2.59-3.338-5.317-4.9-8.039a22.4,22.4,0,0,0-4.506-5.839C496.762,360.592,496.541,360.457,496.636,360.168Z" transform="translate(-61.876 -7.044)"/><path class="b" d="M479.74,482.753c4.5.407,9.029.6,13.293,2.4a44.579,44.579,0,0,1,12.039,7.891c6.014,5.293,10.268,11.8,13.726,18.93,3.172,6.536,6.23,13.128,9.562,19.587,1.874,3.633,4.564,6.651,7.177,9.728,1.341,1.578,1.455,2.313.374,3.989a31.52,31.52,0,0,1-3.336,4.226c-2.363,2.715-4.768,5.393-7.118,8.118-1.081,1.253-2.216,2.458-3.233,3.766-1.931,2.12-3.737,4.355-5.784,6.371a37.235,37.235,0,0,1-3.93,3.942,3.069,3.069,0,0,1-4.26-.121,53.794,53.794,0,0,1-3.916-3.715,6.905,6.905,0,0,1-1.4-1.872c-1.617-2.019-3.459-3.836-5.192-5.75-2.439-2.694-4.7-5.526-6.973-8.359-2.4-3-4.494-6.211-6.686-9.357A13.881,13.881,0,0,0,483,541.168c-.2-.218-.469-.418-.765-.223s-.187.521-.06.787c.262.552.609,1.057.915,1.584a1.861,1.861,0,0,1,.392.953,6.6,6.6,0,0,0,.749,3.19c.969,1.952,1.785,3.971,2.684,5.953a72.014,72.014,0,0,0,3.474,6.335c1.023,1.76,1.883,3.6,2.745,5.439a.882.882,0,0,1,.087.831c-.29.231-.665.123-.989.25a1.617,1.617,0,0,0-1.094,1.427,1.463,1.463,0,0,0,.84,1.408,1.4,1.4,0,0,0,1.691-.146c.266-.2.455-.544.865-.5a1.129,1.129,0,0,1,.564.636c1.394,2.906,2.806,5.8,3.96,8.816a8.348,8.348,0,0,1,.424,1.6c1.226,7.272,2.558,14.527,3.6,21.828a2.4,2.4,0,0,1,.015,1.53c-5.675,2.072-10.832,5.181-16.12,8.028a30.2,30.2,0,0,1-8.495,3.51,19.585,19.585,0,0,1-11.961-1.645c-2.58-1.154-4.906-2.761-7.356-4.146a31.68,31.68,0,0,0-11.228-4.065,38.7,38.7,0,0,0-9.211-.013c-3.407.338-6.78.967-10.2,1.163a11.8,11.8,0,0,1-7.947-1.939,5.132,5.132,0,0,1-3.073-4.224c-.5-4.362-.987-8.726-1.329-13.1q-.387-4.952-.616-9.917c-.178-4.005-.207-8.015-.458-12.018-.113-1.8-.159-3.6-.18-5.4-.031-2.675-.125-5.351-.25-8.018-.312-6.655-.3-13.31-.308-19.968a10.727,10.727,0,0,1,.208-2.253c.708-3.383,1.215-6.809,2.071-10.165.087-.341.326-.878-.081-1.026-.5-.18-.606.419-.757.763a35.314,35.314,0,0,0-1.607,6.147c-.263,1.1-.492,2.213-.741,3.318-.082.364-.134.756-.523.959a1.438,1.438,0,0,1-.51.107c-3.22.1-6.443.049-9.664.1-3.446.054-6.9-.231-10.351-.266-3.426-.034-6.844.3-10.271.188a12,12,0,0,1-1.649-.111,2.4,2.4,0,0,1-2.232-2.544,24.1,24.1,0,0,1,.007-2.788c.2-2.518.2-5.045.362-7.564.3-1.86.057-3.737.176-5.6.016-.258,0-.518.04-.775a6.26,6.26,0,0,0,.12-1.125,120.862,120.862,0,0,1,1.128-14.241,38.6,38.6,0,0,1,.726-4.03,8,8,0,0,1,1.785-3.735,3.8,3.8,0,0,1,3.786-1.187c3.8.724,7.655,1.039,11.5,1.461a151.984,151.984,0,0,0,18.549.468,112.92,112.92,0,0,0,14.664-1.248,40.339,40.339,0,0,1,4.76-.521c.18.051.319.126.243.36a10.48,10.48,0,0,0,.008,5.585c1.289,5.812,5.154,9.134,10.729,10.561,3.858.987,7.534.09,11.063-1.586a59.4,59.4,0,0,0,10.929-7.268,75.6,75.6,0,0,0,7.979-7.132C477.81,484.911,478.657,483.724,479.74,482.753Z" transform="translate(-29.603 -40.466)"/><path class="a" d="M423.936,451.28c-5.472.6-10.911,1.505-16.424,1.736-5.169.217-10.344.36-15.508.1a131.414,131.414,0,0,1-18.329-2.022c-1.323-.255-2.2.473-3.112,1.208a2.31,2.31,0,0,1-1.226-.388,88.316,88.316,0,0,1-13.2-8.085,146.615,146.615,0,0,1-11.9-9.358,93.772,93.772,0,0,1-9.045-8.787c-.361-.418-.786-.775-1.154-1.185-.2-.226-.5-.436-.314-.821a7.822,7.822,0,0,0,.339-2.793c.308-2.558.356-5.138.425-7.717a59.3,59.3,0,0,1,.941-8.427c.521-3.042.99-6.094,1.463-9.144a44.645,44.645,0,0,1,5.21-15.561,41.586,41.586,0,0,1,7.039-9.336,42.316,42.316,0,0,1,13.779-9.065,58.367,58.367,0,0,1,11.529-3.481c2.732-.485,5.473-.8,8.24-1.023a139.582,139.582,0,0,1,14.35-.289c3.259.078,6.523.254,9.772.636,2.293.269,4.607.358,6.909.557,3.2.277,6.414.328,9.614.551,2.37.165,4.747.084,7.111.33-.039.453-.441.588-.732.8a26.27,26.27,0,0,0-7.873,8.385,16.73,16.73,0,0,0-2.043,6.7,17.537,17.537,0,0,0,.091,3.729,9.37,9.37,0,0,0,2.473,5.2,1.584,1.584,0,0,1,.364,1.744,41.993,41.993,0,0,0-2.009,14.612c.029.927.2,1.848.211,2.78a16.47,16.47,0,0,1-1.992,3.848,44.22,44.22,0,0,0-4.426,9.356c-1.821,6.371-.554,12.061,4.022,16.937a16.1,16.1,0,0,0,9.4,5.094c.8.165.882.791.821,1.41-.157,1.615-.085,3.236-.19,4.848-.153,2.335-.2,4.674-.337,7.009-.012.856-.2,1.7-.188,2.559a.684.684,0,0,1-.309.665c-.729-.421-.647-1.172-.685-1.834-.1-1.653-.073-1.642-1.759-1.445C424.834,451.366,424.374,451.6,423.936,451.28Z" transform="translate(-17.457 -6.129)"/><path class="a" d="M403.214,533.362c-.359,4.38-.213,8.77-.149,13.152.087,5.951.338,11.9.53,17.849q.137,4.265.319,8.528c.214,5.219.291,10.448.73,15.654.448,5.315,1.037,10.618,1.539,15.929a4.277,4.277,0,0,0,1.3,2.493c.466.513,1,.968,1.5,1.45-4.035-.052-8.068.124-12.1.236-3.367.093-6.731.1-10.1.094-3.038-.01-6.088-.075-9.109-.362a66.423,66.423,0,0,1-11.954-2.411,38.7,38.7,0,0,1-10.678-4.965,32.248,32.248,0,0,1-8.773-8.321,35.32,35.32,0,0,1-4.129-7.927,58.023,58.023,0,0,1-3.058-10.573c-.514-2.956-1-5.914-1.312-8.9-.22-2.15-.57-4.287-.82-6.435-.167-1.434-.267-2.876-.387-4.315-.754-9.04-.568-18.1-.479-27.152.033-3.326-.012-6.67.321-9.988a37.788,37.788,0,0,0,.314-6.15c-.161-2.534-.292-5.072-.647-7.593-.177-1.256-.26-2.526-.386-3.791.685.18,1.011.788,1.421,1.264.826.959,1.743,1.832,2.542,2.813a46.952,46.952,0,0,0,11.04,8.745c.428.243.869.461,1.317.662,4.138,2.038,8.2,4.241,12.472,5.987.619.253,1.256.449,1.888.664a1.38,1.38,0,0,1,.9.622c-.116,3.335-.253,6.67-.34,10.006-.049,1.869.543,2.591,2.386,2.691a67.591,67.591,0,0,0,6.879-.035,83.551,83.551,0,0,1,9.4.018,55.661,55.661,0,0,0,5.744.156c3.369-.13,6.737-.041,10.1-.1A1.533,1.533,0,0,1,403.214,533.362Z" transform="translate(-18.013 -45.129)"/><path class="a" d="M549.834,589.661a4.133,4.133,0,0,0,1.016,1.473c1.373,1.337,2.675,2.758,4.138,3.988,1.744,1.466,2.942,1.3,4.33.062,1.323-1.183,2.51-2.5,3.759-3.751.6-.245.914.237,1.274.526,2.851,2.294,5.764,4.506,8.826,6.51a62.07,62.07,0,0,0,9.76,5.527,32.133,32.133,0,0,0,9.139,2.409,35.946,35.946,0,0,0,8.585-.181,33.287,33.287,0,0,0,8.744-2.582c6.492-2.878,12.088-7.135,17.62-11.48,3.928-3.086,7.634-6.433,11.29-9.837,1.83-1.7,3.6-3.466,5.353-5.241,2.064-2.086,4.29-4,6.327-6.115a2.052,2.052,0,0,1,1.362-.846c.076,3.366-.2,6.723-.38,10.076-.189,3.455-.526,6.915-1.045,10.335a50.58,50.58,0,0,1-4.107,14.121,49.749,49.749,0,0,1-4.691,8.119A45.6,45.6,0,0,1,631.5,622.96a46.632,46.632,0,0,1-19.954,8.491,53.784,53.784,0,0,1-10.6.978,76.54,76.54,0,0,1-8.877-.8c-3.2-.456-6.382-1.013-9.552-1.635-4.532-.889-9.036-1.931-13.585-2.718-3.068-.53-6.134-1.12-9.213-1.538a56.6,56.6,0,0,0-7.23-.088c-.281,0-.389.221-.57.351a5.251,5.251,0,0,1-.439-2.449c-.223-3.8-.463-7.6-.663-11.393-.129-2.466-.292-4.93-.424-7.395-.142-2.638-.228-5.28-.458-7.914a29.338,29.338,0,0,0-.246-4.258,9.486,9.486,0,0,0-.017-2.048C549.635,590.235,549.562,589.915,549.834,589.661Z" transform="translate(-76.328 -64.281)"/><path class="c" d="M317.328,428.933a15.784,15.784,0,0,0,2.455,2.8,143.357,143.357,0,0,0,20.976,17.814,92.257,92.257,0,0,0,13.414,8.014c-1.59,1.966-1.888,4.381-2.251,6.745-.369,2.395-.639,4.809-.834,7.225-.208,2.592-.476,5.186-.427,7.8.007.364.118.757-.143,1.093a.212.212,0,0,0-.089.142c-.11,1.3-.112,1.306-1.34.69A120.386,120.386,0,0,1,336.573,474a107.317,107.317,0,0,1-10.636-7.746c-1.368-1.17-2.761-2.312-4.033-3.592-3.115-3.133-6.293-6.2-9.272-9.469a110.5,110.5,0,0,1-8.2-9.591,63.9,63.9,0,0,1-3.823-7.423c-1.729-3.711-2.807-7.69-4.665-11.346a92.126,92.126,0,0,0-10.46-16.31c-1.2-1.486-2.572-2.838-3.853-4.262a41.49,41.49,0,0,1-6.317-8.282,12.281,12.281,0,0,1-1.56-8.463,8.643,8.643,0,0,1,2.054-3.989,25.888,25.888,0,0,1,8.263-6.564c3.791-1.719,7.013-.946,9.432,1.9a23.6,23.6,0,0,1,3.989,7.3,37.535,37.535,0,0,1,1.755,7.111,36.884,36.884,0,0,1,2.785-3.688,9.281,9.281,0,0,1,2.955-2.4,2.667,2.667,0,0,1,3.035.209,2.963,2.963,0,0,1,1.061,3.047,50.5,50.5,0,0,1-3.065,8.774,55.25,55.25,0,0,0-2.859,8.665,2.842,2.842,0,0,0,.247,2.08,91.321,91.321,0,0,0,9.72,14.094A48.179,48.179,0,0,0,317.328,428.933Z" transform="translate(-1.066 -11.382)"/><path class="c" d="M658.535,559.493c-2.159,1.724-4.02,3.767-6.019,5.661-2.8,2.656-5.448,5.475-8.306,8.075a159.506,159.506,0,0,1-19.493,15.522,44.117,44.117,0,0,1-14.469,6.619c-.759.172-1.531.288-2.3.43a35.537,35.537,0,0,1-6.7-2.645,72.094,72.094,0,0,1-9.208-5.789c-3.249-2.344-6.554-4.618-9.685-7.123a71.851,71.851,0,0,1-5.758-4.918,1.764,1.764,0,0,1-.626-.818,29.654,29.654,0,0,1,2.721-3.261c3.189-3.68,6.4-7.34,9.6-11.012a8.111,8.111,0,0,1,1.518-1.768c4.477,3.54,8.922,7.121,13.51,10.521a13.4,13.4,0,0,0,6.74,2.547,23.966,23.966,0,0,0,17.265-4.989c3.75-2.778,7.564-5.47,11.3-8.264,2.6-1.942,5.115-4,7.67-6a2.54,2.54,0,0,0,.917-1.7c.733-4.186,1.2-8.426,2.426-12.512a12.91,12.91,0,0,1,2.9-5.292c1.462-1.541,2.733-1.617,4.427-.343a5.762,5.762,0,0,1,1.052,3.521c-.017,1.041,0,2.082,0,3.284,1.385-1.471,2.7-2.8,4.109-4.028a15.372,15.372,0,0,1,6.581-3.749,10.094,10.094,0,0,1,8.672,1.582,15.5,15.5,0,0,1,5.662,7.844,8.663,8.663,0,0,1-3.172,9.519,41.693,41.693,0,0,1-14.372,6.831c-2.089.6-4.182,1.178-6.271,1.775A1.009,1.009,0,0,0,658.535,559.493Z" transform="translate(-83.509 -53.651)"/><path class="d" d="M452.948,402.376a8.035,8.035,0,0,1-.3-2.619,41.019,41.019,0,0,1,2.038-15,1.075,1.075,0,0,0-.263-1.293,10.562,10.562,0,0,1-2.809-8.152c.17-5.235,2.518-9.439,6.175-13.022a37.285,37.285,0,0,1,4.8-3.873,25.707,25.707,0,0,1,8.367-3.2,15.93,15.93,0,0,1,12.771,3.1c.207.156.427.292.641.438a28.188,28.188,0,0,1,6.1,8.2,66.725,66.725,0,0,0,4.316,6.853,24.582,24.582,0,0,0,8.421,7.307,66.292,66.292,0,0,1,8.054,4.679,15.953,15.953,0,0,1,6.5,9.784,16.978,16.978,0,0,1-.657,7.915,37.185,37.185,0,0,1-8.325,15.232c-3.8,4.322-7.893,8.4-11.175,13.153-1.407,2.039-3.1,3.849-4.548,5.847a2.137,2.137,0,0,1-2.266.767c-.5-.084-.55-.471-.53-.858a28.178,28.178,0,0,1,1.181-6.595c.138-.465.54-.655.925-.869a33.414,33.414,0,0,0,7.168-4.926,11.12,11.12,0,0,0,3.659-6.491c.426-3.131-1.658-5.1-5.041-4.342a1.724,1.724,0,0,0-.871.693c-1.035,1.22-1.97,2.521-3.012,3.735a4.224,4.224,0,0,1-1.227,1.1c-.348.178-.7.319-1.05,0a.978.978,0,0,1-.264-1.042,4.541,4.541,0,0,1,.894-1.586,18.809,18.809,0,0,0,2.809-5.1,11.724,11.724,0,0,0,.661-3.761,3.455,3.455,0,0,0-.736-2.29,12.342,12.342,0,0,1-2.506-6.68,6.509,6.509,0,0,0-2.056-4.4,6.8,6.8,0,0,0-3.123-1.472,27.229,27.229,0,0,1-9.612-4.4,33.416,33.416,0,0,0-7.339-3.607,9.251,9.251,0,0,0-8.122.88,2.96,2.96,0,0,0-1.237,1.306c-2.1,4.225-4.693,8.168-6.9,12.331-.272.514-.528,1.037-.805,1.548C453.49,401.97,453.357,402.314,452.948,402.376Z" transform="translate(-49.608 -5.631)"/><path class="e" d="M316.014,468.911c.769.273,1.04,1.041,1.476,1.6,1.474,1.9,3.068,3.694,4.687,5.459,3.626,3.956,7.34,7.833,11.191,11.575a82.369,82.369,0,0,0,9.955,8.222,132.059,132.059,0,0,0,17.66,10.708c.258.127.519.245.785.37.332-.335-.063-.845.33-1.122-.008,1.784-.007,3.567-.03,5.351a8.711,8.711,0,0,1-.153,1.1c-5.061-1.751-9.764-4.287-14.542-6.657-.282-.14-.546-.32-.818-.482a92.5,92.5,0,0,1-9.982-7.293c-.84-.671-1.563-1.474-2.4-2.152l-3.847-4.173a140.707,140.707,0,0,1-12.881-19.837C316.969,470.7,316.493,469.8,316.014,468.911Z" transform="translate(-12.647 -36.693)"/><path class="f" d="M542.473,591.7a2.6,2.6,0,0,1,.294,1.258c.132,3.047.23,6.1.4,9.14.245,4.405.548,8.808.813,13.211.2,3.3.378,6.609.565,9.913l-2.1.675q-.519-3.2-1.038-6.4c-.474-2.932-.935-5.867-1.419-8.8-.455-2.76-.885-5.527-1.42-8.271a30.144,30.144,0,0,0-2.214-5.742c-.658-1.574-1.462-3.087-2.2-4.626a.952.952,0,0,0-.423-.533,4.464,4.464,0,0,1-1.224-2.443,20.829,20.829,0,0,0-2.032-4.5,115.312,115.312,0,0,1-7.392-14.75,3.428,3.428,0,0,1-.37-2.571c.544.154.71.666.963,1.069a104.465,104.465,0,0,0,7.378,10.259c2.086,2.573,4.229,5.094,6.5,7.508,1.513,1.606,2.957,3.277,4.508,4.848A1.222,1.222,0,0,1,542.473,591.7Z" transform="translate(-68.955 -63.502)"/><path class="b" d="M295.16,347.269a20.431,20.431,0,0,1-.2,4.515c-.309,1.312-.815,2.508-2.261,2.955a2.594,2.594,0,0,1-3.325-2.064,38.824,38.824,0,0,1-.46-5.721c-.073-3.164-.322-6.323-.228-9.491a3.1,3.1,0,0,1,2.1-3.009,2.873,2.873,0,0,1,3.255,1.04,3.156,3.156,0,0,1,.612,1.606A76.543,76.543,0,0,1,295.16,347.269Z" transform="translate(-5.193 0)"/><path class="b" d="M710.991,513.761a18.55,18.55,0,0,1,11.124,3.689,9.976,9.976,0,0,1,2.4,3.367,1.784,1.784,0,0,1-.362,2.105,2.263,2.263,0,0,1-2.039.712,12.042,12.042,0,0,1-5.4-2.027c-1.772-1.082-3.821-1.325-5.81-1.727a18.419,18.419,0,0,1-2.112-.512,2.78,2.78,0,0,1-2.11-3.1,2.928,2.928,0,0,1,2.734-2.5A14.83,14.83,0,0,1,710.991,513.761Z" transform="translate(-119.134 -48.913)"/><path class="b" d="M310.707,350.619a2.715,2.715,0,0,1-1,1.869c-1.488,1.344-2.994,2.669-4.533,3.954a3.289,3.289,0,0,1-2.572.879,2.626,2.626,0,0,1-2.244-1.707,2.568,2.568,0,0,1,.58-2.836,56.364,56.364,0,0,1,5.29-4.8,2.609,2.609,0,0,1,2.966-.207A2.881,2.881,0,0,1,310.707,350.619Z" transform="translate(-8.327 -3.572)"/><path class="b" d="M272.4,348.579a2.488,2.488,0,0,1,2.162,1.122,16.5,16.5,0,0,0,4.032,3.919,2.74,2.74,0,0,1,.813,3.839,2.79,2.79,0,0,1-3.793.764,13.309,13.309,0,0,1-5-4.232,4.333,4.333,0,0,1-.951-3.164A2.585,2.585,0,0,1,272.4,348.579Z" transform="translate(0 -3.892)"/><path class="c" d="M450.711,413.558q2.547-4.513,5.092-9.027c1.039-1.848,2.158-3.652,3.053-5.579a3.31,3.31,0,0,1,1.468-1.548,9.484,9.484,0,0,1,8.213-.836,35.849,35.849,0,0,1,7.846,3.929,25.635,25.635,0,0,0,9.166,4.092,6.2,6.2,0,0,1,5.25,5.825,13.741,13.741,0,0,0,2.606,7c1.173,1.54.709,3.357.285,5.048a16.264,16.264,0,0,1-3.081,6.1,11.165,11.165,0,0,0-.845,1.32c-.216.372-.317.786.074,1.107.365.3.726.087,1.032-.142a12.14,12.14,0,0,0,1.932-2.123c.6-.714,1.152-1.461,1.738-2.183a3.764,3.764,0,0,1,4.874-.847,4.3,4.3,0,0,1,1.648,5.007,13.264,13.264,0,0,1-4.75,6.929,39.852,39.852,0,0,1-6.16,3.941c-.33.175-.641.323-.76.762a33.415,33.415,0,0,0-1.153,6.42c-.024.348-.065.7.312.914-.337.087-.31.355-.33.62-.26,3.385.373,6.446,3.132,8.749a1.317,1.317,0,0,1,.2.28c.088.312-.124.5-.315.663-.949.809-1.9,1.611-2.826,2.448a.954.954,0,0,1-.474.206c-.377.111-.961-.049-.874.672a.956.956,0,0,1-.49.478c-4.789,2.429-9.43,5.181-14.575,6.841a15.17,15.17,0,0,1-8.234.682,7.888,7.888,0,0,1-6.089-4.935c-.138-.364-.424-.723-.132-1.141.287-1.028.128-2.105.346-3.141a1.624,1.624,0,0,1,.943-.4,41.808,41.808,0,0,0,17.449-8.176,12.563,12.563,0,0,0,3.3-4.436.819.819,0,0,0-.5-1.258,4.078,4.078,0,0,0-2.14-.224c-3.14.6-6.307,1.008-9.489,1.322-2.817.278-5.635.07-8.45.158-.494.015-.956-.3-1.456-.1a17.191,17.191,0,0,1-11.459-7.829,16.871,16.871,0,0,1-2.567-7.4,18.922,18.922,0,0,1,1.86-10.207c1.338-3.04,3.071-5.86,4.7-8.741C450.312,414.4,450.5,413.973,450.711,413.558Z" transform="translate(-47.371 -16.814)"/><path class="f" d="M461.266,488.527c.868,3.5,3.288,5.264,6.658,5.931,3.136.621,6.112-.119,9.022-1.2,4.7-1.747,9.043-4.237,13.486-6.516a1.954,1.954,0,0,0,.332-.273c.124-.468.524-.586.912-.72a36.044,36.044,0,0,0,3.6-3.135c.276-.25.556-.495.827-.75a1.164,1.164,0,0,1,1.616-.212c.828.52,1.841.377,2.763.582.249.056.523-.007.751.156a5.109,5.109,0,0,1-1.291,1.712,82.783,82.783,0,0,1-16.934,14.157,22.423,22.423,0,0,1-9.78,3.849,14.614,14.614,0,0,1-10.7-2.967,13.23,13.23,0,0,1-5.457-11.1c0-.552.016-1.1,0-1.656a1.22,1.22,0,0,1,.513-1.129,29.089,29.089,0,0,1,2.983-.39c.4-.007.57.057.455.53A5.6,5.6,0,0,0,461.266,488.527Z" transform="translate(-51.094 -40.101)"/><path class="b" d="M576.7,422.9a3.2,3.2,0,0,1,2.3-3.058,21.49,21.49,0,0,1,2.416-.716c.676-.149.789-.521.706-1.121-.123-.89-.231-1.784-.281-2.681a3.129,3.129,0,0,1,1.432-3.071,2.674,2.674,0,0,1,3.039.048,3.639,3.639,0,0,1,1.427,2.218c.191.652.033,1.605.624,1.882.513.24,1.233-.329,1.856-.553a6.668,6.668,0,0,1,2.726-.452,3.452,3.452,0,0,1,2.331,5.881,5.177,5.177,0,0,1-2.032,1.309c-.678.257-1.367.482-2.053.717-1.765.6-1.807.608-1.474,2.424a46.618,46.618,0,0,1,.194,4.864,2.6,2.6,0,0,1-2.319,2.635,2.734,2.734,0,0,1-2.952-1.939c-.452-1.614-1.372-3.08-1.47-4.806-.036-.635-.545-.38-.871-.33a6.519,6.519,0,0,1-3.432-.191A3.168,3.168,0,0,1,576.7,422.9Z" transform="translate(-83.705 -21.127)"/><path class="e" d="M573.835,590.763c1.213,1.026,2.355,2.131,3.577,3.151,2.285,1.909,4.61,3.759,7.036,5.485,2.378,1.693,4.7,3.467,7.1,5.12a50.178,50.178,0,0,0,12.559,6.791,13.336,13.336,0,0,0,1.505.4c.255.052.273.147.191.343a32.452,32.452,0,0,1-6.59.367,30,30,0,0,1-11.281-2.579c-6.23-2.755-11.735-6.673-17.1-10.809a10.829,10.829,0,0,0-2.722-1.977Z" transform="translate(-81.365 -69.908)"/><path class="g" d="M524.811,647.5a4.7,4.7,0,0,1,.011-9.394,4.61,4.61,0,0,1,4.708,4.7A4.683,4.683,0,0,1,524.811,647.5Z" transform="translate(-68.291 -82.812)"/><path class="h" d="M541.914,590.32c-7.051-7.356-13.823-14.941-19.224-23.641-.168-.271-.357-.528-.536-.792-.381-.648-.766-1.294-1.143-1.944-.3-.517-.835-1.141-.143-1.6s1.066.289,1.437.75c1.366,1.7,2.491,3.569,3.743,5.348a154.507,154.507,0,0,0,13.823,16.795c.694.738,1.354,1.509,2.03,2.265C541.918,588.443,542.305,589.379,541.914,590.32Z" transform="translate(-68.395 -62.124)"/><path class="g" d="M412.022,509.811a4.421,4.421,0,1,1-4.369-4.445A4.341,4.341,0,0,1,412.022,509.811Z" transform="translate(-36.407 -46.63)"/><path class="g" d="M526.951,504.476a4.222,4.222,0,0,1-4.343,4.443,4.309,4.309,0,0,1-4.406-4.484,4.4,4.4,0,0,1,4.415-4.389C524.711,499.97,527.27,502.076,526.951,504.476Z" transform="translate(-67.76 -45.179)"/><path class="g" d="M452.772,638.288a4.082,4.082,0,0,1,.1,8.163,4.039,4.039,0,0,1-4.166-4.119A3.937,3.937,0,0,1,452.772,638.288Z" transform="translate(-48.816 -82.858)"/><path class="g" d="M448.481,560.779a4.02,4.02,0,1,1-.146,8.037,4.02,4.02,0,1,1,.146-8.037Z" transform="translate(-47.629 -61.73)"/><path class="i" d="M505.652,571.565a2.716,2.716,0,0,1-2.683,2.719,2.8,2.8,0,0,1-2.729-2.811,2.708,2.708,0,1,1,5.413.092Z" transform="translate(-62.864 -63.898)"/><path class="j" d="M427.854,541.606l-1.76-.009c.642-2.884,1.274-5.771,1.933-8.652a8.389,8.389,0,0,1,.911-2.345c.178-.305.423-.615.833-.448a.637.637,0,0,1,.314.823C429.149,534.478,428.69,538.082,427.854,541.606Z" transform="translate(-42.653 -53.373)"/><path class="i" d="M563.074,546.99a1.948,1.948,0,0,1,1.915-2.031,2.211,2.211,0,0,1,2.089,2.053,2,2,0,0,1-2.1,1.963A1.8,1.8,0,0,1,563.074,546.99Z" transform="translate(-79.992 -57.422)"/><path class="i" d="M555.64,576.068a1.648,1.648,0,0,1,1.81-1.844,1.914,1.914,0,0,1,2.027,1.816,2.129,2.129,0,0,1-1.9,2.024A1.9,1.9,0,0,1,555.64,576.068Z" transform="translate(-77.965 -65.399)"/><path class="i" d="M510.9,510.779a1.622,1.622,0,0,1-1.789-1.668,1.8,1.8,0,0,1,1.7-1.814,1.906,1.906,0,0,1,1.781,1.783A1.683,1.683,0,0,1,510.9,510.779Z" transform="translate(-65.282 -47.156)"/><path class="i" d="M535.368,597.22a22.031,22.031,0,0,1,1.224,2.443c-1.026,1.294-2.07,1.433-3.019.4a1.523,1.523,0,0,1-.127-2.125A1.555,1.555,0,0,1,535.368,597.22Z" transform="translate(-71.815 -71.64)"/><path class="i" d="M489.572,536.406a1.622,1.622,0,0,1-1.556-1.52,1.642,1.642,0,0,1,1.646-1.454,1.488,1.488,0,1,1-.09,2.974Z" transform="translate(-59.532 -54.28)"/><path class="i" d="M441.271,596.063a1.514,1.514,0,0,1,1.486,1.5,1.627,1.627,0,0,1-1.549,1.473,1.485,1.485,0,0,1,.063-2.969Z" transform="translate(-46.387 -71.352)"/><path class="i" d="M476.569,616.626a1.357,1.357,0,0,1-1.5-1.336,1.641,1.641,0,0,1,1.37-1.448,1.35,1.35,0,0,1,1.412,1.42A1.17,1.17,0,0,1,476.569,616.626Z" transform="translate(-56.004 -76.198)"/><path class="i" d="M404.529,501.194a1.136,1.136,0,0,1-1.217,1.269,1.322,1.322,0,0,1-1.376-1.282,1.565,1.565,0,0,1,1.386-1.325A1.343,1.343,0,0,1,404.529,501.194Z" transform="translate(-36.068 -45.128)"/><path class="k" d="M392.11,535.584a1.341,1.341,0,0,1-1.238-1.3,1.328,1.328,0,0,1,1.263-1.292,1.372,1.372,0,0,1,1.346,1.314A1.349,1.349,0,0,1,392.11,535.584Z" transform="translate(-33.053 -54.161)"/><path class="l" d="M462.853,468.186c.275-.246.61-.137.918-.138,2.033-.009,4.066,0,6.1-.005a54.488,54.488,0,0,0,8.263-.821,40.631,40.631,0,0,0,4.351-.712,3.647,3.647,0,0,1,2.035.281c.773.258,1.057.889.673,1.5a16.4,16.4,0,0,1-2.8,4.038,34.037,34.037,0,0,1-6.274,4.33,40.994,40.994,0,0,1-11.312,4.363c-.536.108-1.078.188-1.616.282q.24-5.553.479-11.105c.016-.377-.02-.758.025-1.131C463.776,468.408,463.458,468.17,462.853,468.186Z" transform="translate(-52.673 -36.021)"/><path class="b" d="M387.738,410.291a6.175,6.175,0,0,1,.547-2.574.7.7,0,0,0-.279-.954,8.152,8.152,0,0,1-2.014-1.911,3.18,3.18,0,0,1,.147-4.09,3.021,3.021,0,0,1,3.984-.292c.642.446.911.348,1.134-.337a2.716,2.716,0,0,1,.345-.6,2.9,2.9,0,0,1,5.408,1.549,6.632,6.632,0,0,1-.442,2.475c-.3.779-.066,1.152.658,1.44a7.168,7.168,0,0,1,1.435.818,3.188,3.188,0,0,1-2.936,5.659c-.542-.2-1.1-.718-1.565-.636-.345.06-.53.882-.838,1.329a3.2,3.2,0,0,1-3.109,1.7C388.571,413.655,387.73,412.449,387.738,410.291Z" transform="translate(-31.54 -17.382)"/><path class="m" d="M340.986,505.6a15.5,15.5,0,0,1,2.635,2.077c3.052,2.441,6.142,4.829,9.4,7a.758.758,0,0,1,.347.372,30.048,30.048,0,0,1-6.246-3.853A37.918,37.918,0,0,1,340.986,505.6Z" transform="translate(-19.454 -46.693)"/><path class="l" d="M516,445.841a2.551,2.551,0,0,1-2.422,2.738,2.179,2.179,0,0,1-2.25-2.178,2.907,2.907,0,0,1,2.865-2.713C515.385,443.7,516.01,444.448,516,445.841Z" transform="translate(-65.887 -29.817)"/><path class="n" d="M504.2,487.371l-.912.72c-.187-.225-.594-.479.089-.575C503.649,487.478,503.923,487.421,504.2,487.371Z" transform="translate(-63.615 -41.725)"/></g></svg>