<?xml version="1.0" encoding="UTF-8"?>
<!DOCTYPE svg PUBLIC "-//W3C//DTD SVG 1.1//EN" "http://www.w3.org/Graphics/SVG/1.1/DTD/svg11.dtd">
<!-- Creator: CorelDRAW 2020 (64-Bit) -->
<svg xmlns="http://www.w3.org/2000/svg" xml:space="preserve" width="148.485mm" height="210mm" version="1.1" style="shape-rendering:geometricPrecision; text-rendering:geometricPrecision; image-rendering:optimizeQuality; fill-rule:evenodd; clip-rule:evenodd"
viewBox="0 0 14848.48 21000"
 xmlns:xlink="http://www.w3.org/1999/xlink"
 xmlns:xodm="http://www.corel.com/coreldraw/odm/2003">
 <defs>
  <style type="text/css">
   <![CDATA[
    .fil8 {fill:black}
    .fil3 {fill:#3D9AE1}
    .fil0 {fill:#666666}
    .fil1 {fill:#6DC6ED}
    .fil5 {fill:#77767F}
    .fil6 {fill:#898890}
    .fil4 {fill:#ACABB1}
    .fil2 {fill:#FEE076}
    .fil7 {fill:#FFC477}
   ]]>
  </style>
 </defs>
 <g id="Layer_x0020_1">
  <metadata id="CorelCorpID_0Corel-Layer"/>
  <g id="_1031114736">
   <path class="fil0" d="M1729.35 10395.7c-27.89,43.3 -26.79,25.25 -60.14,127.88 -1.33,4.09 -32.6,172.78 -35.18,185.84l811.33 86.44c92.63,109.02 496.01,1038.57 525.16,1180.04 -195.17,302.12 -438.82,531.6 -617.28,849.93 129.99,228.23 1155.98,1254.46 1392.78,1418.39l461.13 -241.61c-102.24,222.32 22.82,24.52 -91.02,152.81l-354.93 232.87c373.86,31.99 482,-230.03 885.1,-488.23l192.49 -175.01c773.43,363.78 383.88,205.21 672.4,550.86 167.81,201.03 129.34,41.82 287.06,328.17 314.12,570.28 390.44,590.43 1226.94,590.11 631.53,-0.24 561.72,-18.48 1011.44,-272.82 -77.01,169.77 -17.29,82.86 -123.51,187.68 -284.04,280.3 -1391.23,178.42 -1675.64,108.71 286.77,181.47 1533.48,318.22 1935.25,-212.27 117.26,-154.83 114.67,-267.68 207.07,-387.79 147.28,-191.4 129.93,-27.69 287.99,-321.96 157.99,-294.12 -64.12,-131.48 328.71,-296.72 127.67,-53.71 317.28,-154.47 415.96,-160.9 -221.19,-152.66 -620.91,145.5 -678.69,202.55 -131.87,130.2 -52.62,126.47 -216.28,230.32 60.04,-290.4 64.5,-303.72 320.26,-421.98 149.73,-69.25 334.09,-170.97 484.58,-213.96 229.22,154.81 582.69,535.53 858.86,613.28 230.77,-114.35 1315.46,-1193.75 1412.21,-1422.51 -119.76,-320.06 -618.8,-711.77 -580.11,-938.23 0.52,-2.99 465.65,-1068.22 480.67,-1087.99l1023.48 -156.14 11.17 -1846.05 -634.09 -15.28c391.4,134.29 217.28,-29.24 311.34,129.92l21.18 1467.16c-313.22,85.84 -745.63,47.71 -1015.22,200.36 -137.33,210.55 -169.68,527.06 -276.29,756.81 -570.25,1228.92 -198.13,448.93 275.74,1510.87l-1001.85 1031.21c-198.26,-68.35 -253.44,-137 -405.09,-252.75 -709.06,-541.18 -436.25,-269.4 -1061.94,-78.4 89.98,-161.95 153.63,-315.35 66.29,-556.95 -116.53,-322.37 -207.86,-152.83 -327.98,-407.41 -97.09,-433.22 381.19,-495.11 759.34,-880.33 751.53,-765.54 1136.01,-1987.38 808.2,-3109.88 -926.69,-3173.35 -5348.13,-3093.24 -6167.05,61.4 -300.22,1156.46 65.24,2285.8 856,3059.94 316.01,309.36 706.32,496.83 736.94,626.04 127.46,538.05 -642.44,401.74 -282.28,1205.39l-595.89 -246.21c-314.8,154.97 -500.28,402.81 -802.21,583.79l-1092.23 -1041.39c143.66,-343.13 463.34,-552.19 603.68,-865.83 -69.29,-243.28 -213.03,-444.29 -319.36,-695.08 -418.79,-987.52 14.37,-657.16 -1256.49,-885.13z"/>
   <path class="fil1" d="M1729.35 10395.7c1270.85,227.97 837.69,-102.39 1256.49,885.13 106.34,250.78 250.08,451.8 319.36,695.08 -140.34,313.64 -460.03,522.7 -603.68,865.83l1092.23 1041.39c301.93,-180.98 487.41,-428.82 802.21,-583.79l595.89 246.21c-360.17,-803.66 409.74,-667.35 282.28,-1205.39 -30.62,-129.21 -420.93,-316.68 -736.94,-626.04 -790.76,-774.14 -1156.22,-1903.48 -856,-3059.94 818.92,-3154.65 5240.36,-3234.75 6167.05,-61.4 327.81,1122.5 -56.66,2344.34 -808.2,3109.88 -378.15,385.22 -856.43,447.12 -759.34,880.33 120.12,254.57 211.46,85.03 327.98,407.41 87.34,241.59 23.69,394.99 -66.29,556.95 625.69,-191 352.88,-462.78 1061.94,78.4 151.66,115.75 206.83,184.4 405.09,252.75l1001.85 -1031.21c-473.86,-1061.94 -845.99,-281.95 -275.74,-1510.87 106.61,-229.76 138.96,-546.26 276.29,-756.81 269.59,-152.66 702,-114.52 1015.22,-200.36l-21.18 -1467.16c-94.07,-159.16 80.05,4.37 -311.34,-129.92l634.09 15.28 -11.17 1846.05 10.78 -1990.95c-43.82,-11.37 -67.16,-41.55 -75.67,-27.65l-900.71 -168.3 247.62 332.06c-720.12,-61.74 -544.61,22.46 -753.59,-591.75 -117.85,-346.4 -318.26,-614.73 -400.75,-895.57 133.98,-370.29 454.18,-552.26 564.26,-849.93 -189.25,-216.54 -390.26,-401.62 -600.37,-609.93 -158.87,-157.51 -668.73,-527.98 -132.35,-549.8l-292.98 -296.98c-341.34,139.94 -499.35,407.1 -913.14,616.47 -329.77,-145.27 -554.22,-275.52 -934.46,-410.64 266.71,216.34 221.41,202.41 562.37,318.56 756.74,257.77 529.07,210.17 614.61,444.74 -400.17,55.28 -490.61,-116.76 -813.62,-259.99 -281.61,-124.85 -582.07,-181.05 -849.02,-282.88l-158.32 -1037.78c-237.12,-2.77 -1292.45,-38.58 -1493.3,44.19 -125.64,1319.47 -44.11,875.57 -898.73,1263.8 -219.16,99.56 -537.26,318.57 -704.14,297.27 -199.61,-25.47 -521.08,-437.71 -809.21,-528.44l-1010.18 1019.13c180.99,316.17 724.32,585.46 444.68,1083.42 -235.71,419.72 -280.47,695.41 -487.56,1153.82l-942.08 130.74c-8.55,16.12 -15.54,37.43 -19.47,51.19 -3.92,13.8 -13.37,34.75 -17.58,52.11l-25.28 657.88c0.89,262.42 0.08,525.01 0.08,787.44z"/>
   <path class="fil2" d="M5830.65 12000.53l18.17 607.04 2244.86 25.25 14.83 -616.8c3081.63,-1721.23 1491.59,-5389.61 -1145.14,-5385.22 -1415.82,2.38 -2449.38,1020.55 -2731.01,2183.18 -365.87,1510.37 645.42,2837.42 1598.29,3186.55z"/>
   <path class="fil0" d="M6411.27 9729.67c-80.56,179.73 -162.36,115.28 -422.58,240.23 -177.55,85.27 -289.9,188.37 -401.04,328.38 -211.15,266.04 -424.85,772.59 -232.07,1160.81 350.49,116.26 1843,39.36 2457.99,41.51l602.64 -8.34c528.58,-125.13 192.19,-1145.48 -389.26,-1488.28 -174.96,-103.15 -344.23,-109.84 -494.87,-213.59 22.61,-331.86 268.8,-254.11 347.98,-733.05 57.7,-349.09 -35.11,-158.79 123.99,-413.56 77.16,-123.6 98.11,-127.11 91.58,-427.63 -34.67,-1597.79 -2098.32,-1574.71 -2237.13,-187.38 -70.49,704.36 113.17,447.08 190.83,911.07 90.94,543.32 278.88,491.24 361.95,789.83z"/>
   <path class="fil0" d="M1634.03 10709.42c2.58,-13.06 33.85,-181.75 35.18,-185.84 33.35,-102.63 32.25,-84.58 60.14,-127.88 0,-262.43 0.81,-525.02 -0.08,-787.44l25.28 -657.88c4.21,-17.37 13.67,-38.31 17.58,-52.11 3.92,-13.77 10.92,-35.07 19.47,-51.19l942.08 -130.74c207.09,-458.41 251.85,-734.09 487.56,-1153.82 279.65,-497.95 -263.69,-767.24 -444.68,-1083.42l1010.18 -1019.13c288.13,90.72 609.61,502.97 809.21,528.44 166.88,21.3 484.98,-197.71 704.14,-297.27 854.62,-388.23 773.09,55.67 898.73,-1263.8 200.84,-82.77 1256.18,-46.96 1493.3,-44.19l158.32 1037.78c266.95,101.83 567.41,158.03 849.02,282.88 323.01,143.23 413.45,315.27 813.62,259.99 -85.54,-234.57 142.13,-186.97 -614.61,-444.74 -340.96,-116.14 -295.66,-102.22 -562.37,-318.56 -265.08,-66.72 -192.51,-219.81 -221.2,-485.96 -24.75,-229.72 -83.84,-436.59 -112.25,-637.79l-2059.57 2.58 -159.54 1076.78c-452.32,174.74 -727.46,280.26 -1126.85,462.56 -265.35,-210.14 -582.52,-458.98 -849.93,-610l-1477.07 1436.85c106.77,262.87 516.99,685.69 624.63,855.8 -246.93,476.37 -401.57,1001.14 -483.16,1146.78 -309.57,80.06 -749.19,35.42 -1037.32,188.82l-26.97 2039.92 227.17 32.6z"/>
   <path class="fil3" d="M5643.45 11110.53l2644.27 17.07c-27.09,-573.38 -379.07,-883.88 -923.05,-925.29 -399.95,527.97 -438.89,395.18 -826.04,14.25 -575.5,13.48 -792.99,373.83 -895.19,893.97z"/>
   <path class="fil0" d="M11551.83 8456.57c-206.78,-97.55 -78.11,66.84 -198.64,-267.54l-372.48 -887.72c168.29,-296.72 407.06,-522.82 607.1,-849.93l-1111.14 -1159.74c-536.38,21.82 -26.52,392.29 132.35,549.8 210.11,208.31 411.12,393.39 600.37,609.93 -110.08,297.66 -430.29,479.64 -564.26,849.93 82.49,280.83 282.9,549.17 400.75,895.57 208.98,614.22 33.47,530.01 753.59,591.75l-247.62 -332.06z"/>
   <path class="fil4" d="M5497.6 13048.55c-38.92,264.38 -22.84,337.67 312.53,337.67 447.43,0 2368.52,102.74 2640.19,-105.71 14.51,-237.69 -87.42,-271.07 -333.26,-271.07 -754.35,0 -1914.16,-41.36 -2619.46,39.12z"/>
   <path class="fil5" d="M6232.49 8323.23c735.8,-17.61 489.59,-197.51 913.24,-373.62 379.6,88.95 270.06,309.4 582.03,358.7 -4.2,-1347.42 -1619.94,-1179.38 -1495.26,14.92z"/>
   <path class="fil6" d="M5664.03 13918.59c37.09,108.59 63.93,132.72 122.52,205.68l2031.85 14.3c316.97,0.89 388.71,26.52 462.57,-219.98 -194.08,-266.96 -633.15,-159.11 -1317.39,-159.11 -380.42,0 -1151.44,-118.4 -1299.56,159.11z"/>
   <path class="fil7" d="M6412.22 8692.63c2.53,441.27 82.32,703.67 496.25,739.41 431.08,37.24 615.97,-263.53 634.37,-673.73 -28.88,-142.4 -216.05,-228.69 -412.07,-353.85 -185.68,218.1 -371.47,261.5 -718.55,288.16z"/>
   <path class="fil8" d="M3935.52 12388.95l226.69 271.2 264.9 -180.95c-82.97,-200.66 -115.66,-210.23 -267.43,-313.13l-224.16 222.89z"/>
   <polygon class="fil8" points="2834.57,9809.66 3212.92,9809.72 3202.66,9442.63 2857.1,9448.77 "/>
   <polygon class="fil8" points="6777.29,5868.19 7157.1,5868.42 7142.2,5501.26 6803.17,5502.85 "/>
   <polygon class="fil8" points="10724.23,9809.62 11096.88,9809.72 11087.92,9441.51 10742.31,9445.09 "/>
   <path class="fil8" d="M3928.14 6803.37l227.85 283.67c145.55,-108.58 123.01,-114.66 277.18,-186.57l-249.14 -310.69c-108.21,81.38 -157.24,137.6 -255.88,213.59z"/>
   <polygon class="fil8" points="9494.76,12454.32 9746.47,12664.7 9996,12461 9761.68,12176.34 "/>
  </g>
 </g>
</svg>
