<?xml version="1.0" encoding="UTF-8"?>
<!DOCTYPE svg PUBLIC "-//W3C//DTD SVG 1.1//EN" "http://www.w3.org/Graphics/SVG/1.1/DTD/svg11.dtd">
<!-- Creator: CorelDRAW 2020 (64-Bit) -->
<svg xmlns="http://www.w3.org/2000/svg" xml:space="preserve" width="148.485mm" height="210mm" version="1.1" style="shape-rendering:geometricPrecision; text-rendering:geometricPrecision; image-rendering:optimizeQuality; fill-rule:evenodd; clip-rule:evenodd"
viewBox="0 0 14848.48 21000"
 xmlns:xlink="http://www.w3.org/1999/xlink"
 xmlns:xodm="http://www.corel.com/coreldraw/odm/2003">
 <defs>
  <style type="text/css">
   <![CDATA[
    .str0 {stroke:#666666;stroke-width:23.95;stroke-miterlimit:22.9256}
    .fil1 {fill:#666666}
    .fil0 {fill:#6DC6ED}
    .fil2 {fill:#FEE076}
   ]]>
  </style>
 </defs>
 <g id="Layer_x0020_1">
  <metadata id="CorelCorpID_0Corel-Layer"/>
  <path class="fil0 str0" d="M6253.95 6946.69l-666.56 197.94 -520.45 -524.13c-424.47,178.31 -715.87,510.34 -1150.18,700.63 70.84,573.42 -3.95,467.08 361.69,738.47 -164.85,216.56 -150.79,197.34 -274.71,438.31 -355.32,-81.94 -336.28,-146.1 -819.28,-233.79 -62.9,554.5 -324.12,902.55 -418.45,1566.64l636.46 184c-8.77,743.43 -43.94,669.41 -724.62,758.55l355.34 1564.33 757.42 -145.93c135.34,326.69 135.52,457.38 374.95,568.73 -60.17,344.13 -186.08,183.03 -352.62,832.86 476.36,142.37 706.83,555.69 1118.84,751.72 873.31,-378.86 142.22,-619.61 1285.65,-222.64l158.41 615.94c13.02,30.93 29.39,71.14 51.09,102.57l1255.36 -8.6 156.16 -387.99c19.61,-71.35 14.45,-185.9 52.52,-324.45l712.82 -259.68c198.62,292.89 104.2,254.28 438.43,480.19 331.59,-108.56 985.54,-561.05 1163.58,-793.89 -115.44,-401.72 -128.16,-319.55 -358.48,-639.67 177.59,-250.9 194.47,-165.5 345.62,-429.35 384.67,164.08 293.43,156.57 696.15,226.43l503.91 -1432.69 -684.65 -301.25 29.87 -616.86 699.12 -159.18 -352.2 -1500.52c-1547.34,163.31 -475.08,-84.33 -1206.52,-535.9 159.12,-88.96 224.21,-142.79 298.28,-373.19 148.98,-463.44 198.74,-261.49 -552.27,-841.4 -334.08,-257.96 -261.87,-209.15 -668.78,-314 -149.9,354.6 -227.51,297.78 -332.06,537.74l-749.35 -210.6 -2.43 -785.68 -1445.06 0.04c-178.37,259.62 -171.2,231.45 -172.97,776.31z"/>
  <path class="fil1" d="M6296.32 8053.39c-3021.16,795.53 -1920.09,5962.77 1522.78,4873.49 3043.26,-962.86 1951.23,-5788.25 -1522.78,-4873.49z"/>
  <path class="fil2" d="M6427.42 12551.74c0,-1754.02 107.79,-1073.44 -481.13,-1726.3 -399.02,-442.37 -387.19,-1249.76 -84.78,-1754.29 221.09,-368.92 385.29,-419.39 878.7,-494.68l0 1150.74 628.72 -0.12 31.11 -1160.77c1113.8,179.38 1723.57,1558.02 344.04,2624.93l-33.47 1384.03c2429.93,-732.8 1785.01,-4278.81 -657.25,-4279.28 -2196.61,-0.42 -2922.24,2913.55 -1288.19,3964.9 160.66,103.34 410.94,285.77 662.26,290.84z"/>
 </g>
</svg>
